<svg aria-hidden="true" style="position: absolute; width: 0; height: 0; overflow: hidden;" version="1.1" xmlns="http://www.w3.org/2000/svg" xmlns:xlink="http://www.w3.org/1999/xlink">
<defs>
<symbol id="icon-twitter-icon" viewBox="0 0 32 32">
<path d="M30.134 5.6c-1.184 0.834-2.496 1.472-3.883 1.891-1.021-1.17-2.514-1.905-4.18-1.905-3.058 0-5.538 2.479-5.538 5.538 0 0.027 0 0.054 0.001 0.080l-0-0.004v1.237c-0.102 0.003-0.222 0.004-0.343 0.004-4.441 0-8.37-2.197-10.757-5.564l-0.028-0.041s-4.946 11.125 6.182 16.069c-2.265 1.556-5.066 2.485-8.084 2.485-0.201 0-0.401-0.004-0.6-0.012l0.029 0.001c11.128 6.182 24.728 0 24.728-14.218 0-0.346-0.034-0.688-0.099-1.027 1.226-1.209 2.127-2.746 2.559-4.469l0.014-0.066z"></path>
</symbol>
<symbol id="icon-linkedin-icon" viewBox="0 0 32 32">
<path d="M8.269 28h-5.806v-18.694h5.806v18.694zM5.36 6.757c-1.856 0-3.362-1.539-3.362-3.395s1.505-3.362 3.362-3.362 3.362 1.505 3.362 3.362v0c0 1.856-1.504 3.395-3.36 3.395zM29.994 28h-5.792v-9.101c0-2.168-0.043-4.949-3.018-4.949-3.018 0-3.482 2.355-3.482 4.794v9.256h-5.798v-18.694h5.568v2.55h0.080c0.774-1.469 2.667-3.019 5.491-3.019 5.875 0 6.955 3.869 6.955 8.894v10.269h-0.005z"></path>
</symbol>
<symbol id="icon-facebook-icon" viewBox="0 0 32 32">
<path d="M22.4 2.667h-4c-3.682 0-6.666 2.984-6.667 6.666v4h-4v5.334h4v10.666h5.334v-10.666h4l1.333-5.334h-5.333v-4c0-0.736 0.597-1.333 1.333-1.333v0h4v-5.333z"></path>
</symbol>
<symbol id="icon-humburger" viewBox="0 0 49 32">
<path d="M1.524 0h45.714c0.842 0 1.524 0.682 1.524 1.524v1.524c0 0.842-0.682 1.524-1.524 1.524h-45.714c-0.842 0-1.524-0.682-1.524-1.524v-1.524c0-0.842 0.682-1.524 1.524-1.524z"></path>
<path d="M1.524 13.714h45.714c0.842 0 1.524 0.682 1.524 1.524v1.524c0 0.842-0.682 1.524-1.524 1.524h-45.714c-0.842 0-1.524-0.682-1.524-1.524v-1.524c0-0.842 0.682-1.524 1.524-1.524z"></path>
<path d="M1.524 27.429h45.714c0.842 0 1.524 0.682 1.524 1.524v1.524c0 0.842-0.682 1.524-1.524 1.524h-45.714c-0.842 0-1.524-0.682-1.524-1.524v-1.524c0-0.842 0.682-1.524 1.524-1.524z"></path>
</symbol>
<symbol id="icon-arrow" viewBox="0 0 18 32">
<path fill="#fff" style="fill: var(--color1, #fff)" d="M0.914 26.286l10.286-10.286-10.286-10.286 2.057-4.114 14.4 14.4-14.4 14.4-2.057-4.114z"></path>
</symbol>
</defs>
</svg>
